Coordinates
version=1
nRows=18
nColumns=22
inDegrees=yes

Units are S.I. units (second, meters, Newtons, ...)
If the header above contains a line with 'inDegrees', this indicates whether rotational values are in degrees (yes) or radians (no).

endheader
time	pelvis_tilt	pelvis_list	pelvis_rotation	pelvis_tx	pelvis_ty	pelvis_tz	hip_flexion_r	hip_adduction_r	hip_rotation_r	knee_angle_r	ankle_angle_r	subtalar_angle_r	hip_flexion_l	hip_adduction_l	hip_rotation_l	knee_angle_l	ankle_angle_l	subtalar_angle_l	lumbar_extension	lumbar_bending	lumbar_rotation
      1.14000000	     -0.00765265	     -7.00756457	      6.83275281	      0.81633535	      0.90464697	     -0.00679856	     21.32925890	      6.20647633	    -17.66167596	    -16.24526495	      0.92347327	     -9.30571756	     -4.06204440	     -9.53246222	      0.90992725	    -40.47374564	     11.78044472	      4.42557023	     -5.79193186	      5.96152333	    -12.53064727
      1.15000000	     -0.12723756	     -6.99458583	      7.10817997	      0.80918821	      0.90357231	     -0.00840564	     21.71652339	      5.96652356	    -17.93476374	    -15.87196324	      0.73873134	     -9.09226978	     -4.33623128	     -9.28674174	      1.41317102	    -39.00145808	     12.71879812	      3.94494276	     -5.75976106	      5.85915893	    -12.68259678
      1.16000000	     -0.22664192	     -6.96918151	      7.39201178	      0.80175075	      0.90248989	     -0.01000841	     22.10166654	      5.70345358	    -18.23537938	    -15.51707046	      0.64816194	     -8.90647291	     -4.47904535	     -9.04884705	      1.87870181	    -37.78835401	     13.76031109	      3.35599878	     -5.80068955	      5.73251860	    -12.82095865
      1.17000000	     -0.30916962	     -6.90876528	      7.67602512	      0.79403380	      0.90142695	     -0.01160895	     22.47231092	      5.39937232	    -18.55520227	    -15.15712153	      0.64883213	     -8.70756362	     -4.47856187	     -8.79823263	      2.23383537	    -36.85690943	     14.90435170	      2.63378597	     -5.91484002	      5.55520253	    -12.92386859
      1.18000000	     -0.37383370	     -6.80989681	      7.95134521	      0.78605812	      0.90042697	     -0.01320588	     22.83385439	      5.05525597	    -18.84622899	    -14.81352215	      0.73627598	     -8.49279620	     -4.35229401	     -8.51904718	      2.47043574	    -36.17170415	     16.08129440	      1.82776725	     -6.09978447	      5.32896829	    -13.01534880
      1.19000000	     -0.41830299	     -6.65206500	      8.22099514	      0.77784354	      0.89953026	     -0.01481770	     23.17417720	      4.64894837	    -19.12285226	    -14.47902389	      0.92458229	     -8.24573388	     -4.11603021	     -8.18590242	      2.57316732	    -35.70255062	     17.24824622	      0.95922486	     -6.35867782	      5.03479645	    -13.09842203
      1.20000000	     -0.43217991	     -6.42559034	      8.48614447	      0.76944866	      0.89878849	     -0.01645473	     23.47908313	      4.17135202	    -19.40036524	    -14.16325563	      1.26844124	     -7.97247701	     -3.81491290	     -7.78698675	      2.54134628	    -35.38775907	     18.33447999	      0.16700077	     -6.69705828	      4.66687308	    -13.18543815
      1.21000000	     -0.45155892	     -6.13410861	      8.71311580	      0.76087623	      0.89821050	     -0.01804583	     23.75455838	      3.65567238	    -19.55559391	    -13.78587732	      1.57028011	     -7.62956336	     -3.44360370	     -7.30435207	      2.40273483	    -35.17581516	     19.34719443	     -0.79422835	     -7.07295669	      4.21828520	    -13.20868544
      1.22000000	     -0.42806219	     -5.74535120	      8.93305918	      0.75221822	      0.89786583	     -0.01964885	     23.97601956	      3.04604918	    -19.71109973	    -13.43833922	      2.08866547	     -7.26050128	     -3.09222136	     -6.72760767	      2.15409674	    -35.00178902	     20.17138766	     -1.55788048	     -7.53295930	      3.66701388	    -13.26607153
      1.23000000	     -0.42393140	     -5.31245112	      9.12368637	      0.74348886	      0.89769146	     -0.02120760	     24.16331141	      2.42454956	    -19.74240753	    -12.99200787	      2.54297029	     -6.77896957	     -2.71019904	     -6.09058732	      1.85392975	    -34.83945530	     20.94174693	     -2.50668652	     -7.98915370	      3.06232423	    -13.31405933
      1.24000000	     -0.38779259	     -4.78847892	      9.29119707	      0.73473841	      0.89774512	     -0.02276755	     24.29640663	      1.72918305	    -19.71832130	    -12.54831133	      3.14710367	     -6.26076232	     -2.38815575	     -5.35822567	      1.50698372	    -34.64056726	     21.52192223	     -3.28909826	     -8.50606245	      2.36683493	    -13.38597374
      1.25000000	     -0.34299921	     -4.20377408	      9.42924215	      0.72603280	      0.89797207	     -0.02431811	     24.39064631	      0.99481272	    -19.62924114	    -12.08085486	      3.81863477	     -5.67348637	     -2.12248072	     -4.55817788	      1.15155739	    -34.37191488	     21.99157130	     -4.02957428	     -9.03398135	      1.61280043	    -13.49300615
      1.26000000	     -0.27952622	     -3.56704685	      9.54442381	      0.71735043	      0.89833847	     -0.02588969	     24.45135732	      0.22421598	    -19.47396255	    -11.61686321	      4.54511552	     -5.03431192	     -1.91147661	     -3.69604668	      0.83556810	    -34.05410669	     22.35876911	     -4.70202752	     -9.58875194	      0.81946302	    -13.62812658
      1.27000000	     -0.20220577	     -2.89398402	      9.63635018	      0.70873088	      0.89879328	     -0.02749165	     24.49479378	     -0.57237732	    -19.26317468	    -11.18183741	      5.30419716	     -4.36279738	     -1.75403076	     -2.78797551	      0.57986896	    -33.68243037	     22.64004473	     -5.29171468	    -10.15270050	      0.00826386	    -13.80108574
      1.28000000	     -0.10106903	     -2.19427605	      9.70377949	      0.70020243	      0.89930704	     -0.02912927	     24.54603922	     -1.39821680	    -19.04290339	    -10.85560745	      6.09608349	     -3.78621240	     -1.66041797	     -1.85014558	      0.38012304	    -33.25729185	     22.83159227	     -5.67718882	    -10.73113355	     -0.80455766	    -14.01560952
      1.29000000	     -0.02798034	     -1.52766341	      9.75456652	      0.69174933	      0.89974557	     -0.03082018	     24.63956395	     -2.19585400	    -18.73282840	    -10.58538209	      6.79238518	     -2.98606840	     -1.53449307	     -0.92326392	      0.28705083	    -32.84184499	     23.08275095	     -6.25080655	    -11.24934036	     -1.55355621	    -14.24660139
      1.30000000	      0.05135318	     -0.87417858	      9.78021927	      0.68340799	      0.90014803	     -0.03253256	     24.80061727	     -2.99886836	    -18.41091884	    -10.51998686	      7.45225510	     -2.35780952	     -1.42998356	     -0.00729255	      0.23646140	    -32.40948811	     23.28607017	     -6.62036127	    -11.75041550	     -2.25970739	    -14.49648595
      1.31000000	      0.13255091	     -0.25716484	      9.77940240	      0.67519482	      0.90050182	     -0.03425867	     25.03726847	     -3.78323564	    -18.05773903	    -10.67908014	      8.04375700	     -1.91039172	     -1.32666992	      0.87311486	      0.20611707	    -31.98446648	     23.43885170	     -6.83880408	    -12.22202760	     -2.89592898	    -14.74882973
